<?xml version="1.0" encoding="UTF-8"?><svg id="a" xmlns="http://www.w3.org/2000/svg" viewBox="0 0 1037.37 308.81"><path d="M41.98,245.26s28-96.03,103.14-113.1c105.71-24.03,149.77-5,225.61-42.56,52.14-25.82,85.85-55.75,177.14-55.16,82.69,.54,258.88,105.97,344.75,108.93,30.26,1.04,56.94,1.36,79.48-2.09l2.43,3.89c-25.04,2.47-66.75,4.33-81.69,4.21-85.83-3.78-262.79-103.74-345.47-104.28-91.29-.59-125,29.34-177.14,55.16-75.85,37.56-119.9,18.54-225.61,42.56-75.13,17.08-103.14,113.1-103.14,113.1l.5-10.66h0Z"/><g><path id="b" d="M387.01,178.89h10.29c6.34,0,11.48,5.92,11.48,13.23v77.79c0,7.31-5.14,13.23-11.48,13.23h-10.29c-6.34,0-11.48-5.92-11.48-13.23v-77.79c0-7.31,5.14-13.23,11.48-13.23Z"/><path id="c" d="M263.29,178.89h10.29c6.34,0,11.48,5.92,11.48,13.23v77.79c0,7.31-5.14,13.23-11.48,13.23h-10.29c-6.34,0-11.48-5.92-11.48-13.23v-77.79c0-7.31,5.14-13.23,11.48-13.23Z"/><path id="d" d="M358.88,34.82l9.65-5.61c5.94-3.46,14-.71,17.99,6.14l42.46,72.95c3.99,6.85,2.4,15.21-3.54,18.67l-9.65,5.61c-5.94,3.46-14,.71-17.99-6.14l-42.46-72.95c-3.99-6.85-2.4-15.21,3.54-18.67Z"/><path id="e" d="M235.16,34.82l9.65-5.61c5.94-3.46,14-.71,17.99,6.14l42.46,72.95c3.99,6.85,2.4,15.21-3.54,18.67l-9.65,5.61c-5.94,3.46-14,.71-17.99-6.14l-42.46-72.95c-3.99-6.85-2.4-15.21,3.54-18.67Z"/></g></svg>