<?xml version="1.0" encoding="UTF-8"?><svg id="AC" xmlns="http://www.w3.org/2000/svg" viewBox="0 0 1037.4 308.8"><path d="M255.05,129.8c-30.49,2.38-64.95,4.64-111.25,15.2-75.1,17.2-103.1,113.2-103.1,113.2l.5-10.7h0s28-96,103.1-113.1c40.87-9.28,72.53-12.13,100.37-14.31"/><path d="M343.67,103.12c8.39-3.06,17.08-6.78,26.23-11.32,52.1-25.8,85.9-55.8,177.1-55.2,82.7,.5,258.9,106,344.8,108.9,30.3,1,56.9,1.4,79.5-2.1l2.4,3.9c-25,2.5-66.8,4.3-81.7,4.2-85.8-3.8-262.8-103.7-345.5-104.3-91.3-.6-125,29.3-177.1,55.2-9.03,4.47-17.6,8.14-25.88,11.18"/><path d="M298.6,245.1c-.7,2-2.7,3.3-4.7,3.3-.6,0-1.2-.1-1.7-.3-6.5-2.4-12.8-5.5-18.6-9.3-2.3-1.5-3-4.6-1.5-7,1.5-2.3,4.6-3,7-1.5,5.2,3.4,10.8,6.1,16.7,8.3,2.4,.9,3.7,3.8,2.8,6.5Zm-63.3-70.4c2.7-.5,4.6-3.1,4.1-5.8-1.1-6.1-1.4-12.4-1.1-18.6,.1-2.8-2-5.1-4.8-5.3-2.8-.1-5.1,2-5.3,4.8-.3,6.9,.1,13.9,1.3,20.8,.4,2.5,2.6,4.2,5,4.2,.2,0,.5,0,.8-.1Zm123.1-86c.4,.2,.9,.4,1.3,.6,.7,.3,1.3,.4,2,.4,1.9,0,3.8-1.1,4.6-3,1.1-2.6,0-5.5-2.6-6.6-.5-.2-1-.4-1.5-.6-2.6-1.1-5.5,.2-6.6,2.7-1,2.5,.3,5.4,2.8,6.5Zm1.6-17.1c5.8,2.1,11.4,4.9,16.7,8.3,.8,.5,1.8,.8,2.7,.8,1.7,0,3.3-.8,4.2-2.3,1.5-2.3,.8-5.5-1.5-7-5.8-3.8-12.1-6.9-18.6-9.3-2.6-1-5.5,.4-6.5,3-.9,2.6,.4,5.5,3,6.5Zm44.9,71.1c-2.8,.4-4.7,2.9-4.3,5.7,.1,.5,.1,.9,.2,1.4,.3,2.6,2.5,4.5,5,4.5h.6c2.8-.3,4.8-2.8,4.4-5.6-.1-.5-.1-1.1-.2-1.6-.4-2.8-2.9-4.7-5.7-4.4Zm-154.9,24.7h.7c2.8-.4,4.7-2.9,4.3-5.7-.1-.5-.1-.9-.2-1.4-.3-2.8-2.8-4.8-5.6-4.5s-4.8,2.8-4.5,5.6c.1,.6,.1,1.1,.2,1.7,.4,2.5,2.6,4.3,5.1,4.3Zm176.2-27.9c-.5-2.7-3.1-4.6-5.8-4.1-2.7,.5-4.6,3.1-4.1,5.8,1.1,6.1,1.4,12.4,1.1,18.6-.1,2.8,2,5.1,4.8,5.3h.2c2.7,0,4.9-2.1,5-4.8,.4-6.9,0-13.9-1.2-20.8Zm-1.3,49c1.5,5.1,.9,10.6-1.8,15.1l-2.2,3.9c-2.6,4.6-7.1,7.9-12.2,9.1-4.9,1.2-9.8,.3-13.8-2.3l-47.2-30.9,3.2,56.4c.3,4.8-1.5,9.5-4.9,13.1-3.6,3.8-8.7,6-14,6h-4.5c-5.3,0-10.4-2.2-14-6-3.4-3.6-5.2-8.3-4.9-13.1l3.2-56.4-47.2,30.9c-4.1,2.7-9,3.5-13.8,2.3-5.1-1.2-9.6-4.5-12.2-9.1l-2.2-3.9c-2.6-4.6-3.3-10.1-1.8-15.1,1.4-4.8,4.6-8.6,8.9-10.8l50.4-25.5-50.4-25.5c-4.3-2.2-7.5-6-8.9-10.8-1.5-5.1-.9-10.6,1.8-15.1l2.2-3.9c2.6-4.6,7.1-7.9,12.2-9.1,4.9-1.2,9.8-.3,13.8,2.3l47.2,30.9-3.2-56.4c-.3-4.8,1.5-9.5,4.9-13.1,3.6-3.8,8.7-6,14-6h4.5c5.3,0,10.4,2.2,14,6,3.4,3.6,5.2,8.3,4.9,13.1l-3.2,56.4,47.2-30.9c4.1-2.7,9-3.5,13.8-2.3,5.1,1.2,9.6,4.5,12.2,9.1l2.2,3.9c2.6,4.6,3.3,10.1,1.8,15.1-1.4,4.8-4.6,8.6-8.9,10.8l-50.4,25.5,50.4,25.5c4.3,2.2,7.4,6,8.9,10.8Zm-114-16.7c-3.7-3.5-6.3-8.1-7.6-13.1l-55.5,28c-1.8,.9-3.2,2.6-3.8,4.7-.7,2.4-.4,5,.8,7.2l2.2,3.9c1.2,2.2,3.4,3.7,5.8,4.3,2.1,.5,4.3,.2,6-.9l52.1-34.1Zm0-39.1l-52-34c-1.2-.8-2.6-1.2-4-1.2-.6,0-1.3,.1-1.9,.2-2.4,.6-4.6,2.2-5.8,4.3l-2.2,3.9c-1.2,2.2-1.6,4.8-.8,7.2,.6,2.1,2,3.8,3.8,4.7l55.5,28c1-5,3.7-9.6,7.4-13.1Zm7.7-68.5l3.5,62.1c2.2-.6,4.5-1,6.8-1.1h.2c2.3,.1,4.5,.4,6.6,1.1l3.5-62.1c.1-2-.7-4.1-2.2-5.6-1.7-1.8-4.1-2.9-6.6-2.9h-4.5c-2.5,0-4.9,1-6.6,2.9-.1,1.5-.8,3.5-.7,5.6Zm22.1,176.1l-3.5-62.1c-2.2,.6-4.4,1-6.7,1.1h-.2c-2.3-.1-4.6-.4-6.8-1.1l-3.5,62.1c-.1,2,.7,4.1,2.2,5.6,1.7,1.8,4.1,2.9,6.6,2.9h4.5c2.5,0,4.9-1,6.6-2.9,.1-1.6,.9-3.6,.8-5.6Zm5.9-88.1v-1.1c-.6-8.7-7.8-15.6-16.7-15.8h-.3c-8.9,.1-16.1,7-16.7,15.8v1.2h0v1.2c.6,8.7,7.9,15.7,16.7,15.8h.2c8.9-.1,16.1-7,16.7-15.8v-.1c.1-.5,.1-.8,.1-1.2h0Zm1.7-19.5c3.7,3.5,6.3,8.1,7.6,13.1l55.5-28c1.8-.9,3.2-2.6,3.8-4.7,.7-2.4,.4-5-.8-7.2l-2.2-3.9c-1.2-2.2-3.4-3.7-5.8-4.3-2.1-.5-4.3-.2-6,.9l-52.1,34.1Zm66.9,58.7c-.6-2.1-2-3.8-3.8-4.7l-55.5-28c-1.2,5-3.8,9.6-7.6,13.1l52,34c1.7,1.1,3.8,1.5,6,.9,2.4-.6,4.6-2.2,5.8-4.3l2.2-3.9c1.3-2.1,1.6-4.7,.9-7.1Zm-118,30.1c-.4-.2-.9-.4-1.3-.6-2.6-1.1-5.5,0-6.6,2.6s0,5.5,2.6,6.6c.5,.2,1,.4,1.5,.7,.6,.3,1.3,.4,1.9,.4,2,0,3.9-1.2,4.7-3.1,1-2.6-.3-5.6-2.8-6.6Z"/></svg>