<?xml version="1.0" encoding="UTF-8"?><svg id="a" xmlns="http://www.w3.org/2000/svg" viewBox="0 0 1037.37 308.81"><defs><style>.b{fill:#fff;}.c{stroke:#fff;stroke-miterlimit:10;stroke-width:2px;}</style></defs><path d="M41.23,247.52s28-96.03,103.14-113.1c105.71-24.03,149.77-5,225.61-42.56,52.14-25.82,85.85-55.75,177.14-55.16,82.69,.54,258.88,105.97,344.75,108.93,30.26,1.04,56.94,1.36,79.48-2.09l2.43,3.89c-25.04,2.47-66.75,4.33-81.69,4.21-85.83-3.78-262.79-103.74-345.47-104.28-91.29-.59-125,29.34-177.14,55.16-75.85,37.56-119.9,18.54-225.61,42.56-75.13,17.08-103.14,113.1-103.14,113.1l.5-10.66h0Z"/><path class="c" d="M298.55,245.05c-.75,2.04-2.68,3.3-4.73,3.3-.58,0-1.17-.1-1.74-.31-6.53-2.4-12.79-5.52-18.63-9.28-2.34-1.51-3.02-4.63-1.51-6.97,1.51-2.34,4.63-3.02,6.97-1.51,5.22,3.36,10.82,6.15,16.66,8.29,2.61,.96,3.95,3.86,2.99,6.47Zm-63.3-70.32c2.74-.47,4.58-3.08,4.11-5.83-1.06-6.13-1.45-12.38-1.15-18.57,.14-2.78-2.01-5.15-4.79-5.28-2.79-.14-5.15,2.01-5.28,4.79-.34,6.93,.09,13.92,1.28,20.78,.42,2.45,2.56,4.18,4.96,4.18,.29,0,.58-.02,.87-.07Zm123.19-86.06c.44,.18,.88,.37,1.32,.56,.66,.29,1.34,.43,2.02,.43,1.94,0,3.79-1.13,4.62-3.02,1.12-2.55-.04-5.53-2.6-6.64-.51-.22-1.01-.44-1.53-.65-2.58-1.06-5.52,.17-6.58,2.75-1.06,2.58,.17,5.52,2.75,6.58Zm1.6-17.11c5.84,2.15,11.44,4.94,16.65,8.29,.84,.54,1.79,.8,2.72,.8,1.66,0,3.28-.82,4.25-2.31,1.51-2.34,.83-5.46-1.51-6.97-5.84-3.76-12.11-6.88-18.63-9.28-2.61-.96-5.51,.38-6.47,2.99-.96,2.61,.38,5.51,2.99,6.47Zm44.91,71.18c-2.76,.37-4.7,2.91-4.32,5.67,.06,.47,.12,.95,.17,1.42,.29,2.58,2.47,4.48,5.01,4.48,.19,0,.38-.01,.57-.03,2.77-.31,4.76-2.81,4.45-5.57-.06-.55-.13-1.1-.2-1.65-.37-2.76-2.91-4.69-5.67-4.32Zm-154.97,24.71c.23,0,.45-.02,.68-.05,2.76-.37,4.69-2.91,4.32-5.67-.06-.47-.12-.94-.17-1.41-.3-2.77-2.8-4.77-5.56-4.46-2.77,.3-4.77,2.8-4.46,5.56,.06,.55,.13,1.11,.2,1.66,.34,2.53,2.51,4.37,4.99,4.37Zm176.2-27.93c-.47-2.74-3.08-4.59-5.83-4.11-2.74,.47-4.58,3.08-4.11,5.83,1.06,6.12,1.45,12.37,1.15,18.57-.13,2.78,2.01,5.15,4.79,5.28,.08,0,.17,0,.25,0,2.67,0,4.9-2.1,5.03-4.8,.34-6.94-.1-13.93-1.28-20.78Zm-1.32,48.98c1.51,5.05,.86,10.56-1.77,15.12l-2.24,3.87c-2.63,4.55-7.08,7.87-12.21,9.09-4.86,1.16-9.78,.33-13.83-2.32l-47.24-30.93,3.16,56.38c.27,4.84-1.47,9.51-4.91,13.14-3.62,3.83-8.72,6.03-13.97,6.03h-4.47c-5.26,0-10.35-2.2-13.97-6.03-3.43-3.63-5.18-8.3-4.91-13.14l3.16-56.38-47.24,30.92c-4.06,2.66-8.97,3.48-13.84,2.32-5.13-1.22-9.58-4.53-12.21-9.09l-2.24-3.87c-2.63-4.55-3.27-10.06-1.77-15.12,1.43-4.79,4.6-8.63,8.93-10.82l50.4-25.45-50.4-25.45c-4.33-2.19-7.5-6.03-8.93-10.82-1.51-5.05-.86-10.56,1.77-15.12l2.24-3.87c2.63-4.55,7.08-7.87,12.21-9.09,4.86-1.16,9.78-.33,13.83,2.32l47.24,30.92-3.16-56.38c-.27-4.84,1.47-9.51,4.91-13.14,3.62-3.83,8.72-6.03,13.97-6.03h4.47c5.26,0,10.35,2.2,13.97,6.03,3.43,3.63,5.18,8.3,4.91,13.14l-3.16,56.38,47.24-30.92c4.06-2.66,8.97-3.48,13.83-2.32,5.13,1.22,9.58,4.53,12.21,9.09l2.24,3.87c2.63,4.55,3.27,10.06,1.77,15.12-1.43,4.79-4.6,8.63-8.93,10.82l-50.4,25.45,50.4,25.45c4.33,2.19,7.5,6.03,8.93,10.82Zm-113.98-16.72c-3.72-3.55-6.35-8.09-7.56-13.11l-55.47,28.01c-1.83,.92-3.18,2.59-3.81,4.7-.72,2.41-.41,5.03,.84,7.19l2.24,3.87c1.25,2.16,3.37,3.74,5.81,4.32,2.14,.51,4.26,.17,5.97-.95l51.99-34.03Zm0-39.11l-51.99-34.03c-1.19-.78-2.58-1.18-4.04-1.18-.64,0-1.29,.08-1.94,.23-2.44,.58-4.56,2.16-5.81,4.32l-2.24,3.87c-1.25,2.16-1.55,4.78-.84,7.19,.63,2.11,1.98,3.78,3.81,4.7l55.47,28.01c1.22-5.02,3.84-9.56,7.57-13.11Zm7.69-68.49l3.48,62.05c2.21-.64,4.5-1,6.83-1.06h0s.03,0,.04,0h.19s.02,0,.03,0h.06s.02,0,.03,0h.1s.02,0,.03,0h.03s.02,0,.03,0c0,0,.02,0,.03,0,.01,0,.02,0,.03,0h.03s.02,0,.03,0h.03s.02,0,.04,0,.02,0,.04,0c0,0,.02,0,.03,0,.01,0,.02,0,.03,0,0,0,.02,0,.03,0,.01,0,.02,0,.03,0s.02,0,.03,0h.06s.02,0,.03,0h.04s.02,0,.03,0c.01,0,.02,0,.03,0h.09s.01,0,.03,0h.03s.02,0,.03,0h.03s.02,0,.03,0h.03s.02,0,.03,0c.01,0,.02,0,.03,0,.01,0,.02,0,.03,0h.2c2.25,.08,4.47,.44,6.61,1.06l3.48-62.05c.11-2.05-.65-4.05-2.16-5.65-1.73-1.82-4.15-2.87-6.65-2.87h-4.47c-2.5,0-4.92,1.05-6.65,2.87-1.51,1.6-2.28,3.6-2.16,5.65Zm22.09,176.08l-3.48-62.05c-2.16,.63-4.4,.99-6.67,1.06h0s-.04,0-.07,0h-.38s-.02,0-.03,0h-.06s-.02,0-.03,0h-.1s-.02,0-.03,0c-.01,0-.02,0-.03,0h-.06s-.02,0-.03,0h-.13s-.02,0-.03,0c0,0-.02,0-.03,0-.01,0-.02,0-.03,0,0,0-.02,0-.03,0,0,0,0,0-.03,0-.01,0-.02,0-.03,0,0,0-.02,0-.03,0-.01,0-.02,0-.04,0h-.06s-.02,0-.03,0h-.19s-.04,0-.07,0h-.03s-.03,0-.04,0h0c-2.33-.06-4.62-.42-6.83-1.06l-3.48,62.05c-.11,2.04,.65,4.05,2.16,5.65,1.73,1.83,4.15,2.87,6.65,2.87h4.47c2.5,0,4.92-1.05,6.64-2.87,1.51-1.6,2.28-3.6,2.17-5.65Zm5.93-88.06c0-.34-.01-.69-.04-1.05,0-.04,0-.09,0-.13-.61-8.72-7.84-15.65-16.69-15.78-.02,0-.04,0-.05,0,0,0-.02,0-.03,0-.02,0-.04,0-.05,0h-.03s-.02,0-.03,0h-.03s-.02,0-.03,0h-.03s-.02,0-.03,0h-.06s-.03,0-.05,0c0,0-.02,0-.03,0-8.87,.1-16.13,7.04-16.74,15.78,0,.04,0,.07,0,.11-.02,.42-.04,.76-.04,1.07v.04c0,.31,.01,.66,.04,1.07,0,.04,0,.07,0,.11,.61,8.74,7.87,15.68,16.74,15.78h.03s.04,0,.05,0h.03s.02,0,.03,0h.11s.02,0,.03,0c0,0,.02,0,.02,0,.02,0,.04,0,.06,0h.03c8.87-.1,16.13-7.04,16.74-15.78,0-.04,0-.09,0-.13,.02-.36,.03-.71,.04-1.05v-.04Zm1.76-19.53c3.72,3.55,6.35,8.09,7.56,13.11l55.47-28.01c1.83-.92,3.18-2.59,3.81-4.7,.72-2.41,.41-5.03-.84-7.19l-2.24-3.87c-1.25-2.16-3.37-3.74-5.81-4.32-2.14-.51-4.26-.17-5.97,.95l-51.99,34.03Zm66.84,58.71c-.63-2.11-1.98-3.78-3.81-4.7l-55.47-28.01c-1.22,5.03-3.84,9.56-7.56,13.11l51.99,34.03c1.71,1.12,3.83,1.46,5.97,.95,2.44-.58,4.56-2.16,5.81-4.32l2.24-3.87c1.25-2.16,1.55-4.78,.84-7.19Zm-118.03,30.09c-.44-.18-.88-.37-1.31-.56-2.55-1.12-5.52,.04-6.64,2.59s.04,5.53,2.59,6.64c.51,.22,1.02,.44,1.53,.65,.63,.26,1.28,.38,1.92,.38,1.98,0,3.86-1.18,4.67-3.13,1.06-2.58-.17-5.52-2.75-6.58Z"/><polyline class="b" points="271.25 128.97 252.83 119.2 281.79 114.85 299.12 125.62"/><polygon class="b" points="320.93 106.26 321.79 121.62 337.61 118.63 338.5 102.72 320.93 106.26"/></svg>