<?xml version="1.0" encoding="UTF-8"?><svg id="Bilglass" xmlns="http://www.w3.org/2000/svg" viewBox="0 0 1037.4 308.8"><defs><style>.cls-1,.cls-2{fill:none;stroke:#000;stroke-miterlimit:10;}.cls-2{stroke-width:8px;}</style></defs><path d="M396.6,78.72c35.43-19.04,71.5-35.44,139.24-35.07,82.7,.5,258.9,106,344.8,108.9,30.3,1,56.9,1.4,79.5-2.1l2.4,3.9c-25,2.5-66.8,4.3-81.7,4.2-85.8-3.7-262.8-103.7-345.4-104.2-60.66-.4-95.9,12.67-128,29.08"/><path d="M203.27,140.47c-20.52,2.18-43.51,5.52-70.52,11.68-75.2,17-103.2,113-103.2,113l.5-10.6h0s28-96,103.1-113.1c28.64-6.5,52.76-9.85,74.21-12.02"/><g><path class="cls-2" d="M317.24,75.35c19.5,.3,38.9,.7,58.4,1,8.6,.1,17.2,.2,25.8,.4,4.8,.1,8.2,2.4,10,6.8,4.4,10.9,9.1,21.7,13.1,32.7,4.6,12.3,8.7,24.8,12.9,37.2,1.7,5.2,3,10.6,4.4,15.9,1.7,6.4-1.6,12.4-7.8,14.5-10.5,3.5-21.1,6.5-32.1,7.8-9.7,1.1-19.4,1.9-29.1,2.8-5,.4-10,.7-15,.8-23.1,.2-46.2,.2-69.4,.3-4.7,0-9.4,0-14-.3-10.2-.6-20.3-1.2-30.4-2.2-6.9-.6-13.8-1.6-20.7-2.8-7.9-1.4-15.6-3.7-23.1-6.3-5.9-2-9.3-7.8-7.8-13.7,2.3-8.8,4.7-17.5,7.5-26.2,4.6-14.5,9.9-28.8,15.7-42.8,2.4-5.9,4.9-11.8,7.3-17.7,1.8-4.4,5.2-6.6,9.9-6.7,14.1-.2,28.2-.4,42.3-.7,13.9-.3,28-.5,42.1-.8Zm-61.5,5.3c-7.5,.2-15,.4-22.5,.6-1.9,0-3.1,.7-3.9,2.5-3.1,6.7-6.3,13.3-9.2,20.1-6,14-11.2,28.4-15.4,43-2,6.9-3.9,13.8-5.6,20.7-1,3.9,.4,7.4,3.9,9.3,2,1.1,4.3,1.9,6.6,2.3,9.7,1.9,19.4,3.9,29.2,5.5,7.4,1.2,15,1.9,22.5,2.5,6.5,.5,13.1,.6,19.6,.8,6.9,.2,13.8,.5,20.7,.4,19.4-.1,38.7-.4,58.1-.7,5.7-.1,11.5-.5,17.2-1,12.2-.9,24.2-2.6,36.1-5.1,5.4-1.1,10.9-2.2,16.2-3.8,5.1-1.5,7.3-5.8,6-10.9-1-4.2-2.2-8.4-3.4-12.5-3.3-12.1-7.2-24-11.6-35.8-4.5-12-9.7-23.7-15.3-35.2-.8-1.5-1.9-2.2-3.5-2.3-5-.1-10.1-.3-15.1-.4-11.3-.3-22.7-.5-34-.7-.6,0-1.3,.5-1.7,.9-1.1,1.1-2.1,2.3-3.2,3.3-.4,.4-1.2,.7-1.8,.7-5.6,.1-11.2,.2-16.8,.2-12.6,0-25.3-.2-37.9,0-2.5,0-4.1-.9-5.6-2.6-.4-.5-.8-1-1.2-1.6-.5-.7-1.1-1.1-2-1-1,.1-2,.2-3,.2-8,.3-15.7,.4-23.4,.6Z"/><path class="cls-1" d="M255.74,80.65c7.7-.2,15.4-.3,23.2-.5,1,0,2-.1,3-.2,.9-.1,1.5,.3,2,1,.4,.5,.8,1.1,1.2,1.6,1.4,1.7,3.1,2.6,5.6,2.6,12.6-.1,25.3,0,37.9,0,5.6,0,11.2-.1,16.8-.2,.6,0,1.3-.3,1.8-.7,1.1-1,2.1-2.3,3.2-3.3,.5-.4,1.2-.9,1.7-.9,11.3,.2,22.7,.5,34,.7,5,.1,10.1,.3,15.1,.4,1.7,0,2.8,.7,3.5,2.3,5.7,11.5,10.8,23.2,15.3,35.2,2.5,6.65,4.84,13.4,7,20.2,1.64,5.17,3.18,10.37,4.6,15.6,1.1,4.2,2.3,8.3,3.4,12.5,1.3,5.1-.9,9.4-6,10.9-5.3,1.5-10.7,2.7-16.2,3.8-11.9,2.4-24,4.2-36.1,5.1-5.7,.4-11.5,.9-17.2,1-19.4,.3-38.7,.6-58.1,.7-6.9,0-13.8-.2-20.7-.4-6.5-.2-13.1-.3-19.6-.8-7.5-.6-15-1.4-22.5-2.5-9.8-1.6-19.5-3.5-29.2-5.5-2.3-.5-4.5-1.2-6.6-2.3-3.5-1.9-4.9-5.4-3.9-9.3,1.8-6.9,3.7-13.8,5.6-20.7,4.2-14.7,9.4-29,15.4-43,2.9-6.8,6.2-13.4,9.2-20.1,.8-1.7,2-2.4,3.9-2.5,7.6-.3,15.2-.5,22.7-.7Z"/></g></svg>