<?xml version="1.0" encoding="UTF-8"?><svg id="a" xmlns="http://www.w3.org/2000/svg" viewBox="0 0 1037.37 308.81"><defs><style>.b{fill:#fff;}.b,.c{stroke:#fff;stroke-miterlimit:10;stroke-width:2px;}</style></defs><path d="M41.98,255.66s28-96.03,103.14-113.1c105.71-24.03,149.77-5,225.61-42.56,52.14-25.82,85.85-55.75,177.14-55.16,82.69,.54,258.88,105.97,344.75,108.93,30.26,1.04,56.94,1.36,79.48-2.09l2.43,3.89c-25.04,2.47-66.75,4.33-81.69,4.21-85.83-3.78-262.79-103.74-345.47-104.28-91.29-.59-125,29.34-177.14,55.16-75.85,37.56-119.9,18.54-225.61,42.56-75.13,17.08-103.14,113.1-103.14,113.1l.5-10.66h0Z"/><g><path class="c" d="M329.17,76.52c19.45,.34,38.9,.68,58.36,1.01,8.6,.14,17.2,.23,25.8,.38,4.8,.08,8.15,2.38,9.96,6.82,4.42,10.89,9.05,21.7,13.14,32.71,4.57,12.3,8.72,24.75,12.86,37.2,1.73,5.21,3.02,10.58,4.44,15.89,1.7,6.35-1.6,12.43-7.83,14.53-10.49,3.53-21.12,6.52-32.15,7.76-9.7,1.09-19.42,1.94-29.15,2.76-4.99,.42-10,.75-15,.78-23.12,.16-46.24,.23-69.37,.28-4.67,.01-9.36-.04-14.02-.32-10.16-.62-20.32-1.23-30.45-2.17-6.93-.64-13.84-1.63-20.69-2.82-7.89-1.37-15.55-3.71-23.13-6.29-5.91-2.01-9.32-7.77-7.76-13.74,2.3-8.78,4.75-17.53,7.51-26.17,4.63-14.49,9.95-28.75,15.69-42.84,2.41-5.91,4.86-11.79,7.33-17.67,1.84-4.38,5.2-6.62,9.93-6.7,14.11-.24,28.22-.42,42.33-.65,14.07-.23,28.13-.48,42.2-.72Zm-61.5,5.25c-7.51,.2-15.02,.44-22.53,.56-1.91,.03-3.14,.73-3.93,2.46-3.06,6.71-6.32,13.33-9.24,20.1-6.04,14.01-11.18,28.36-15.41,43.02-1.98,6.88-3.87,13.79-5.65,20.72-1,3.88,.45,7.37,3.94,9.28,2.01,1.1,4.3,1.86,6.56,2.31,9.72,1.94,19.45,3.92,29.24,5.47,7.44,1.18,14.97,1.93,22.49,2.54,6.52,.52,13.08,.62,19.63,.82,6.88,.21,13.77,.48,20.65,.43,19.36-.14,38.73-.36,58.09-.69,5.75-.1,11.49-.54,17.23-.97,12.16-.91,24.21-2.63,36.15-5.07,5.42-1.11,10.86-2.25,16.17-3.8,5.08-1.48,7.27-5.76,5.99-10.9-1.04-4.19-2.23-8.35-3.38-12.52-3.32-12.1-7.15-24.03-11.6-35.76-4.54-11.98-9.67-23.68-15.33-35.17-.76-1.54-1.85-2.23-3.53-2.27-5.05-.1-10.1-.27-15.15-.39-11.34-.27-22.69-.54-34.03-.75-.58-.01-1.29,.45-1.75,.89-1.11,1.06-2.07,2.29-3.2,3.33-.44,.4-1.16,.69-1.75,.7-5.59,.09-11.19,.16-16.78,.15-12.65-.02-25.3-.17-37.95-.05-2.49,.02-4.11-.87-5.55-2.59-.43-.51-.85-1.03-1.24-1.57-.5-.68-1.08-1.11-2-1-.99,.12-1.99,.19-2.99,.21-7.72,.17-15.44,.33-23.16,.49Z"/><path class="b" d="M267.67,81.77c7.72-.16,15.44-.32,23.16-.49,1-.02,2-.09,2.99-.21,.92-.11,1.5,.32,2,1,.39,.54,.81,1.06,1.24,1.57,1.45,1.73,3.06,2.62,5.55,2.59,12.65-.12,25.3,.03,37.95,.05,5.59,0,11.19-.06,16.78-.15,.6-.01,1.32-.29,1.75-.7,1.13-1.04,2.08-2.27,3.2-3.33,.46-.44,1.16-.9,1.75-.89,11.34,.21,22.69,.48,34.03,.75,5.05,.12,10.1,.29,15.15,.39,1.68,.03,2.77,.72,3.53,2.27,5.67,11.48,10.79,23.19,15.33,35.17,4.45,11.74,8.28,23.67,11.6,35.76,1.14,4.17,2.33,8.33,3.38,12.52,1.28,5.14-.9,9.42-5.99,10.9-5.31,1.55-10.75,2.68-16.17,3.8-11.94,2.45-23.99,4.16-36.15,5.07-5.74,.43-11.48,.88-17.23,.97-19.36,.32-38.72,.55-58.09,.69-6.88,.05-13.77-.23-20.65-.43-6.55-.2-13.11-.29-19.63-.82-7.52-.6-15.05-1.35-22.49-2.54-9.79-1.55-19.51-3.53-29.24-5.47-2.26-.45-4.54-1.22-6.56-2.31-3.5-1.9-4.94-5.39-3.94-9.28,1.78-6.93,3.67-13.84,5.65-20.72,4.23-14.66,9.37-29.01,15.41-43.02,2.92-6.77,6.18-13.39,9.24-20.1,.79-1.73,2.02-2.43,3.93-2.46,7.51-.13,15.02-.37,22.53-.56Z"/></g></svg>