<?xml version="1.0" encoding="UTF-8"?><svg id="a" xmlns="http://www.w3.org/2000/svg" viewBox="0 0 1037.37 308.81"><defs><style>.b,.c{fill:#fff;}.c{stroke:#000;}.c,.d{stroke-miterlimit:10;stroke-width:2px;}.d{stroke:#fff;}</style></defs><path d="M41.98,254.49s28-96.03,103.14-113.1c105.71-24.03,149.77-5,225.61-42.56,52.14-25.82,85.85-55.75,177.14-55.16,82.69,.54,258.88,105.97,344.75,108.93,30.26,1.04,56.94,1.36,79.48-2.09l2.43,3.89c-25.04,2.47-66.75,4.33-81.69,4.21-85.83-3.78-262.79-103.74-345.47-104.28-91.29-.59-125,29.34-177.14,55.16-75.85,37.56-119.9,18.54-225.61,42.56-75.13,17.08-103.14,113.1-103.14,113.1l.5-10.66h0Z"/><g><path class="d" d="M231.75,149.12c0-27.51,0-55.01,0-82.52,0-9.96,7.95-18.07,17.85-18.07,43.04-.02,86.08-.02,129.12,0,10.09,0,18.17,8.21,18.17,18.29,0,54.63,0,109.26,0,163.89,0,11.19-7.89,19.03-19.09,19.02-42.5-.01-85.01-.02-127.51,0-10.67,0-18.53-7.84-18.53-18.56,0-27.35,0-54.71,0-82.06Zm157.86,.1c0-27.27-.1-54.54,.07-81.81,.04-6.48-4.55-11.73-11.74-11.7-42.49,.14-84.98,.07-127.48,.07-7.32,0-11.65,4.37-11.65,11.76,0,16.62,0,33.24,0,49.87,0,37.92,0,75.84,0,113.75,0,6.54,4.47,11.28,10.72,11.28,42.95,.02,85.9,.02,128.86,0,1.06,0,2.16-.05,3.17-.33,5.15-1.4,8.03-5.2,8.03-10.63,.02-27.42,0-54.85,.01-82.27Z"/><path class="d" d="M343,145.46c0,10.39,0,20.42,0,30.45,0,11.18,.02,22.36,0,33.54-.02,10.91-7.93,18.77-18.88,18.72-4.25-.02-8.53,.39-12.67-1.27-6.83-2.75-11.51-9.35-11.52-16.72-.01-20.68,0-41.36,0-62.03v-2.69c-2.32,0-4.44-.02-6.56,0-5.78,.05-10.19-2.38-13.1-7.36-.71-1.22-1.44-1.64-2.86-1.61-5.95,.14-9.73-3.69-9.73-9.68,0-3.29-.04-6.59,0-9.88,.07-5.29,3.88-9.15,9.17-9.11,1.79,.02,2.81-.47,3.77-2.09,2.71-4.57,6.92-6.76,12.22-6.83,2.28-.03,4.56,0,7.1,0,0-3.52,0-6.86,0-10.2,0-10.74,7.92-18.69,18.71-18.64,4.17,.02,8.37-.43,12.46,1.16,7.16,2.79,11.8,9.19,11.9,16.88,.05,3.51,0,7.02,0,10.8,2.46,0,4.73,0,7,0,7.95,0,14.24,5.95,14.43,13.9,.15,6.2,.18,12.41,.04,18.61-.17,8-6.54,14.02-14.59,14.03-2.2,0-4.4,0-6.87,0Zm-21.69-7.04h0c9.49,0,18.99,0,28.48-.01,4.62,0,7.56-2.97,7.57-7.64,.02-5.75,.02-11.49,0-17.24-.02-4.66-2.98-7.59-7.62-7.59-18.84,0-37.67,0-56.51,0-4.74,0-7.64,2.83-7.67,7.53-.03,5.82-.03,11.64,0,17.47,.02,4.54,2.98,7.47,7.49,7.48,9.42,.01,18.84,0,28.25,0Zm-3.52,71.77v-64.61h-10.6c-.06,.56-.14,1.01-.14,1.46,0,21.22-.02,42.45,.05,63.67,.02,5.53,4.82,10.11,10.39,10.2,2.45,.04,4.9,.02,7.35,.01,6.37-.03,10.92-4.63,10.92-11.07,0-20.61,0-41.22,0-61.83v-2.43h-10.85v64.61h-7.13Zm.12-111.37v-10.74h7.2v10.69h10.67c0-.75,0-1.36,0-1.96,0-3.29,.13-6.6-.06-9.88-.29-5.1-4.91-9.44-10.03-9.59-2.75-.08-5.51-.05-8.27,0-4.34,.07-8.83,2.93-9.62,7.16-.87,4.66-.71,9.51-1,14.33h11.11Zm-39.68,16.47c-3.08-.49-3.51-.15-3.52,2.73,0,2.75,0,5.51,0,8.26,0,2.9,.37,3.21,3.53,2.89v-13.89Z"/><path class="c" d="M251.05,167.71c1.9-.52,2.85,0,3.56,1.53,1.52,3.25,3.25,6.4,5.24,9.59v-11.14l.73-.38c.4,.46,1.14,.91,1.15,1.38,.09,4.43,.05,8.86,.05,13.29-1.54,.66-2.34,.15-2.99-1.17-1.82-3.68-3.74-7.31-6.09-10.88,0,2.46,0,4.91,0,7.37,0,.99,.1,2-.04,2.98-.1,.68-.54,1.31-.82,1.96-.26-.69-.71-1.38-.75-2.08-.1-2.06-.03-4.13-.03-6.19,0-2.05,0-4.11,0-6.24Z"/><path class="c" d="M251.15,209.6v-14.51c3.76-.06,7.57-.88,10.41,2.53,1.94,2.32,2.1,5.84,.51,8.62-1.72,3-4.82,3.99-10.92,3.36Zm1.59-1.88c3.86,.58,6.69-.23,7.85-2.18,1.15-1.92,1.04-5.4-.41-6.94-2.06-2.19-4.72-1.99-7.44-1.87v10.99Z"/><path class="c" d="M251.93,140.58c1.63,0,2.92,0,4.22,0,2.96,.01,4.8,1,5.47,2.93,.63,1.81-.33,3.73-2.9,5.59l5.32,5.91-.26,.56c-.72-.28-1.59-.4-2.14-.89-1.07-.97-1.98-2.12-2.93-3.22q-1.84-2.14-5.11-1.63c0,1.32,.08,2.69-.04,4.04-.05,.53-.53,1.02-.81,1.53-.28-.46-.78-.92-.79-1.39-.06-4.35-.04-8.7-.04-13.44Zm1.75,7.11c2.27-.11,4.63,.78,5.94-1.58,.37-.68,.26-2.13-.23-2.69-1.56-1.77-3.68-1.02-5.7-1.04v5.31Z"/><path class="c" d="M252.35,88.38c2.2,.1,4.04,.03,5.84,.31,2.48,.39,4.01,2.14,4.05,4.25,.03,2.18-1.58,4.22-3.91,4.72-1.32,.28-2.7,.31-4.28,.47,0,1.34,.06,2.62-.03,3.9-.03,.41-.45,.79-.69,1.18-.32-.4-.92-.8-.93-1.21-.07-4.42-.04-8.85-.04-13.63Zm1.81,7.79c2.14-.01,4.37,.57,5.67-1.52,.48-.77,.51-2.43,0-3.09-1.45-1.86-3.62-1.35-5.66-1.14v5.75Z"/><path class="d" d="M274.81,152.61v-6.99h7v6.99h-7Z"/><path class="d" d="M274.87,91.77h6.99v6.94h-6.99v-6.94Z"/><path class="d" d="M281.94,199.54v6.85h-7.1v-6.85h7.1Z"/><path class="d" d="M281.86,179.43h-7.03v-6.7h7.03v6.7Z"/></g><rect class="b" x="285.55" y="103.22" width="71.83" height="35.2"/></svg>