<?xml version="1.0" encoding="UTF-8"?><svg id="Layer_1" xmlns="http://www.w3.org/2000/svg" viewBox="0 0 1037.4 308.8"><g id="Flushing"><path d="M277.3,131.1c-3-.7-4-3.8-3.3-6.4-35,3.3-73.4,4.1-128.8,16.6-75.2,17.2-103.2,113.2-103.2,113.2l-.5,10.6s28-96,103.1-113.1c60.9-13.8,101.3-13.4,139.2-17.7,1.3-.1,2.6-.3,4-.6-3.6-.6-7.1-1.8-10.5-2.6Z"/><path d="M972.1,150.4c-22.6,3.5-49.2,3.1-79.5,2.1-85.9-2.9-262.1-108.4-344.8-108.9-91.2-.5-125,29.4-177.1,55.2-4.3,2.1-8.5,4.1-12.6,5.8,0,0-.4,.1-1,.3,.4,.3,.8,.7,1.1,1,1,1.2,1.8,2.4,2.2,3.9,.4,1.3,.2,2.7,0,4.1v.1l1-.5c2.2-1,6.5-3,8.8-4.1,52.1-25.9,85.8-55.8,177.1-55.2,82.7,.7,259.7,100.6,345.5,104.3,14.9,.1,56.7-1.7,81.7-4.2l-2.4-3.9Z"/><g><path d="M231.7,149.1V66.6c0-10,8-18.1,17.8-18.1h129.1c10.1,0,18.2,8.2,18.2,18.3V230.7c0,11.2-7.9,19-19.1,19h-127.5c-10.7,0-18.5-7.8-18.5-18.6,0-27.3,0-54.6,0-82Zm157.9,.1c0-27.3-.1-54.5,.1-81.8,0-6.5-4.6-11.7-11.7-11.7-42.5,.1-85,.1-127.5,.1-7.3,0-11.7,4.4-11.6,11.8V231.3c0,6.5,4.5,11.3,10.7,11.3h128.9c1.1,0,2.2-.1,3.2-.3,5.1-1.4,8-5.2,8-10.6-.1-27.6-.1-55.1-.1-82.5Z"/><path d="M343,145.5v63.9c0,10.9-7.9,18.8-18.9,18.7-4.3,0-8.5,.4-12.7-1.3-6.8-2.7-11.5-9.4-11.5-16.7v-64.7h-6.6c-5.8,0-10.2-2.4-13.1-7.4-.7-1.2-1.4-1.6-2.9-1.6-5.9,.1-9.7-3.7-9.7-9.7v-9.9c.1-5.3,3.9-9.2,9.2-9.1,1.8,0,2.8-.5,3.8-2.1,2.7-4.6,6.9-6.8,12.2-6.8h7.1v-10.2c0-10.7,7.9-18.7,18.7-18.6,4.2,0,8.4-.4,12.5,1.2,7.2,2.8,11.8,9.2,11.9,16.9v10.8h7c8,0,14.2,6,14.4,13.9,.2,6.2,.2,12.4,0,18.6-.2,8-6.5,14-14.6,14-2.1,.1-4.3,.1-6.8,.1Zm-21.7-7.1h28.5c4.6,0,7.6-3,7.6-7.6v-17.2c0-4.7-3-7.6-7.6-7.6h-56.5c-4.7,0-7.6,2.8-7.7,7.5v17.5c0,4.5,3,7.5,7.5,7.5,9.4-.1,18.8-.1,28.2-.1Zm-3.5,71.8v-64.6h-10.6c-.1,.6-.1,1-.1,1.5v63.7c0,5.5,4.8,10.1,10.4,10.2h7.4c6.4,0,10.9-4.6,10.9-11.1v-64.2h-10.8v64.6c-2.5-.1-4.7-.1-7.2-.1Zm.1-111.4v-10.7h7.2v10.7h10.7v-2c0-3.3,.1-6.6-.1-9.9-.3-5.1-4.9-9.4-10-9.6-2.8-.1-5.5-.1-8.3,0-4.3,.1-8.8,2.9-9.6,7.2-.9,4.7-.7,9.5-1,14.3h11.1Zm-39.7,16.5c-3.1-.5-3.5-.1-3.5,2.7v8.3c0,2.9,.4,3.2,3.5,2.9v-13.9Z"/><path d="M251.1,167.7c1.9-.5,2.8,0,3.6,1.5,1.5,3.2,3.2,6.4,5.2,9.6v-11.1c.2-.1,.5-.3,.7-.4,.4,.5,1.1,.9,1.2,1.4,.1,4.4,.1,8.9,.1,13.3-1.5,.7-2.3,.1-3-1.2-1.8-3.7-3.7-7.3-6.1-10.9v7.4c0,1,.1,2,0,3-.1,.7-.5,1.3-.8,2-.3-.7-.7-1.4-.7-2.1-.1-2.1,0-4.1,0-6.2-.2-2.1-.2-4.2-.2-6.3Z"/><path d="M251.1,209.6v-14.5c3.8-.1,7.6-.9,10.4,2.5,1.9,2.3,2.1,5.8,.5,8.6-1.6,3-4.8,4-10.9,3.4Zm1.6-1.9c3.9,.6,6.7-.2,7.8-2.2,1.1-1.9,1-5.4-.4-6.9-2.1-2.2-4.7-2-7.4-1.9,0,3.9,0,7.4,0,11Z"/><path d="M251.9,140.6h4.2c3,0,4.8,1,5.5,2.9,.6,1.8-.3,3.7-2.9,5.6,1.8,2,3.6,3.9,5.3,5.9-.1,.2-.2,.4-.3,.6-.7-.3-1.6-.4-2.1-.9-1.1-1-2-2.1-2.9-3.2-1.8-2.1-1.8-2.2-5.1-1.6,0,1.3,.1,2.7,0,4,0,.5-.5,1-.8,1.5-.3-.5-.8-.9-.8-1.4-.1-4.3-.1-8.7-.1-13.4Zm1.8,7.1c2.3-.1,4.6,.8,5.9-1.6,.4-.7,.3-2.1-.2-2.7-1.6-1.8-3.7-1-5.7-1v5.3Z"/><path d="M252.3,88.4c2.2,.1,4,0,5.8,.3,2.5,.4,4,2.1,4,4.3s-1.6,4.2-3.9,4.7c-1.3,.3-2.7,.3-4.3,.5,0,1.3,.1,2.6,0,3.9,0,.4-.5,.8-.7,1.2-.3-.4-.9-.8-.9-1.2,0-4.5,0-8.9,0-13.7Zm1.9,7.8c2.1,0,4.4,.6,5.7-1.5,.5-.8,.5-2.4,0-3.1-1.4-1.9-3.6-1.3-5.7-1.1v5.7Z"/><path d="M274.8,152.6v-7h7v7h-7Z"/><path d="M274.9,91.8h7v6.9h-7v-6.9Z"/><path d="M281.9,199.5v6.8h-7.1v-6.8h7.1Z"/><path d="M281.9,179.4h-7v-6.7h7v6.7Z"/></g></g></svg>