<?xml version="1.0" encoding="UTF-8"?><svg xmlns="http://www.w3.org/2000/svg" xmlns:xlink="http://www.w3.org/1999/xlink" viewBox="0 0 1037.37 308.81"><defs><style>.g{fill:url(#d);}.h{fill:#fff;}.i{fill:#cf0000;}</style><linearGradient id="d" x1="40.73" y1="147.44" x2="973.79" y2="147.44" gradientTransform="matrix(1, 0, 0, 1, 0, 0)" gradientUnits="userSpaceOnUse"><stop offset=".08" stop-color="#676767" stop-opacity=".9"/><stop offset=".39" stop-color="#e6e6e6"/><stop offset=".86" stop-color="#77797b"/><stop offset=".97" stop-color="#77797b" stop-opacity="0"/></linearGradient></defs><g id="a"/><g id="b"/><g id="c"><g><path class="i" d="M177.34,247.71c0,.8-.46,1.3-1.39,1.52-.59,.15-1.97,.22-4.16,.22h-47.88c-3.02,0-4.54-2.74-4.54-8.22,0-2.38,.88-11.61,2.65-27.69,2.1-18.31,3.91-30.43,5.42-36.34,.59-2.31,3.02-3.46,7.31-3.46h36.29c3.69,0,5.54,.72,5.54,2.17,0,.29-.17,1.01-.5,2.17l-6.05,10.2c-.25,.87-.93,1.3-2.02,1.3-.5,0-2.1-.72-4.79-2.17-1.85-1.3-5.21-1.95-10.08-1.95-4.54,0-8.23,1.14-11.09,3.42-2.86,2.28-4.28,5.26-4.28,8.95,0,2.89,1.18,4.34,3.53,4.34,.67,0,3.67-.72,9.01-2.17,5.33-1.45,9.05-2.17,11.15-2.17,2.69,0,4.03,.8,4.03,2.39,0,.43-.17,1.23-.5,2.39l-5.04,10.85c-.25,1.16-.84,1.74-1.76,1.74-.34,0-1.62-.33-3.84-.98-2.23-.65-3.8-.98-4.72-.98-4.03,0-7.35,1.36-9.95,4.09-2.6,2.72-3.91,5.72-3.91,8.99,0,2.76,1.11,5.23,3.34,7.41,2.22,2.18,5.31,3.41,9.26,3.7,5.63,0,10.58-1.25,14.87-3.75,2.52-1.47,4.2-2.21,5.04-2.21,.76,0,1.68,.72,2.77,2.17,1.18,2.03,2.31,4.01,3.4,5.96,1.93,3.62,2.9,6.33,2.9,8.13Z"/><path class="i" d="M233.03,214.3c0,12.22-.93,22.71-2.77,31.45-.42,1.88-.84,2.97-1.26,3.25-.42,.29-1.68,.43-3.78,.43h-9.07c-1.85,0-2.77-.65-2.77-1.94,0-2.59,.78-7.77,2.33-15.55,1.55-7.78,2.33-12.74,2.33-14.9v-2.81c0-9.07-2.42-13.6-7.26-13.6-4.09,0-7.26,1.95-9.51,5.86-2,3.54-3,8.03-3,13.45,0,3.11,.5,7.99,1.51,14.64,1.01,6.65,1.51,10.88,1.51,12.69,0,1.01-.23,1.63-.69,1.84-.46,.22-1.41,.33-2.83,.33h-8.32c-1.34,0-2.27-.18-2.77-.54-.5-.36-1.01-1.41-1.51-3.15-1.01-18.22-1.51-27.76-1.51-28.63,0-11.35,1.34-20.75,4.03-28.2,.33-1.01,.84-1.63,1.51-1.84,.42-.22,1.34-.33,2.77-.33h9.07c1.51,0,2.27,.58,2.27,1.74,0,.15-.13,.71-.38,1.68-.25,.98-.38,1.72-.38,2.22,0,.72,.33,1.08,1.01,1.08,.59,0,2.73-.5,6.43-1.52,3.7-1.01,6.59-1.52,8.69-1.52,4.62,0,8.23,2.24,10.84,6.72,2.35,4.19,3.53,9.62,3.53,16.27v.87Z"/><path class="i" d="M250.08,254.76c1.64,.94,6.9,2.9,9.24,3.91,2.34,1.01,7.08,1.68,10.51,1.83,2.87,.13,4.76-.19,6.67-.69,1.92-.5,3.8-1.18,4.62-2.54,1.48-2.48,1.23-3.05,1.76-4.62,.52-1.57,.83-3.33,.92-5.28l.19-4.23-1.26-.06c-1.49,2.03-3.61,3.06-5.97,4.19-5,2.39-9.9,2.73-13.48,2.01-5.14-1.02-8.74-3.82-12.3-8.25-3.56-4.43-5.13-11.37-4.72-20.83,.44-9.97,3.24-17.37,8.39-22.21,5.16-4.84,12.6-7.05,22.34-6.62,5.11,.22,9.68,.67,13.66,1.63,2.23,.54,5.39,1.66,7.8,1.7l-1.09,54.07c-.37,8.38-.82,17.35-5.92,20.7-5.32,3.49-12.56,3.37-20.93,2.5-5.44-.56-9.17-1.3-12.46-2.2-3.29-.9-6.06-1.08-7.84-2.1m19.25-30.37c4.17,.18,7.03,.31,9.84-2.28,1.84-1.7,4.85-2.87,5.04-7.24l.95-21.59c-2.69-1.28-6.13-2.01-10.35-2.19-4.51-.2-8.04,.95-10.6,3.44-2.55,2.49-5.63,8.51-5.89,14.51-.24,5.49,.86,8.99,2.82,11.61,1.96,2.62,4.65,3.59,8.19,3.74Z"/><path class="i" d="M335.91,182.42c0,3.11-1.39,6.07-4.16,8.89-3.7,3.83-9.03,5.93-16,6.29-.67,0-1.01-.14-1.01-.43,1.85-2.75,2.77-5.06,2.77-6.94,0-1.37-1.03-3.05-3.09-5.04-2.06-1.99-3.72-2.98-4.98-2.98h-.25c.67-.72,1.18-1.08,1.51-1.08l10.84-8.03c.76-.58,1.93-.87,3.53-.87,2.52,0,4.87,1,7.06,2.98,2.18,1.99,3.44,4.39,3.78,7.21Z"/><path class="i" d="M387.69,231.87c0,5.93-2.65,10.67-7.94,14.21-4.79,3.25-10.46,4.88-17.01,4.88s-11.3-1.59-15.25-4.77c-3.95-3.18-5.92-7.16-5.92-11.93s1.01-7.95,3.02-10.19c1.59,3.54,4.39,6.82,8.38,9.82,3.99,3,7.41,4.5,10.27,4.5,1.93,0,3.88-.65,5.86-1.95,1.97-1.3,2.96-2.89,2.96-4.77s-1.26-3.69-3.78-5.21c-1.43-.94-4.54-2.39-9.32-4.34-5.21-2.1-8.78-4.08-10.71-5.97-2.94-2.82-4.41-6.62-4.41-11.39,0-5.21,2.27-9.29,6.8-12.26,4.03-2.67,8.99-4.01,14.87-4.01,4.62,0,9.24,1.05,13.86,3.15,4.37,2.03,6.55,3.94,6.55,5.75,0,.15-.34,.94-1.01,2.39l-4.28,4.99c-1.26,1.45-2.19,2.17-2.77,2.17-.67,0-1.93-1.23-3.78-3.69-2.02-2.75-4.96-4.12-8.82-4.12-2.19,0-4.12,.56-5.8,1.68-1.68,1.12-2.52,2.37-2.52,3.74,0,1.74,1.51,3.25,4.54,4.56,9.49,4.12,15.83,7.34,19.02,9.65,4.79,3.62,7.18,7.99,7.18,13.12Z"/><path class="h" d="M492.48,231.44c0,11.93-7.56,17.93-22.68,18l-33.51,.22c-2.44,0-4.08-1.59-4.91-4.77-.59-2.53-.88-7.45-.88-14.75v-25.38c0-8.53,1.09-17.42,3.28-26.68,.5-1.95,1.09-3.27,1.76-3.96,.67-.69,2.02-1.03,4.03-1.03h25.2c8.15,0,14.09,1.03,17.83,3.09,3.74,2.06,5.61,5.58,5.61,10.57s-3.36,10.05-10.08,15.83c-1.51,1.01-2.27,1.95-2.27,2.82,0,1.01,1.09,2.24,3.28,3.69,4.79,4.27,8.15,7.92,10.08,10.95,2.18,3.47,3.28,7.27,3.28,11.39Zm-21.92-41.86c0-1.66-.88-2.95-2.65-3.85-1.76-.9-3.91-1.36-6.43-1.36-10.25,0-15.37,6.29-15.37,18.87,0,2.32,1.01,3.47,3.02,3.47,1.85,0,3.7-.65,5.54-1.95,4.03-1.81,7.52-3.98,10.46-6.51,3.61-3.11,5.42-6,5.42-8.68Zm4.03,38.33c0-2.52-1.39-5.67-4.16-9.45s-5.33-5.67-7.69-5.67c-3.53,0-7.9,1.66-13.1,4.97-1.85,3.17-2.77,5.62-2.77,7.34,0,8.21,3.61,12.31,10.84,12.31,11.25,0,16.88-3.17,16.88-9.5Z"/><path class="h" d="M519.43,245.76c0,1.74-.25,2.78-.76,3.15-.5,.36-1.68,.54-3.53,.54h-9.07c-1.43,0-2.44-.14-3.02-.43-.84-.5-1.26-1.63-1.26-3.36s-.21-6.43-.63-14.1c-.25-6.51-.38-11.75-.38-15.73,0-6.22,.33-13.52,1.01-21.91,.84-2.31,2.52-3.47,5.04-3.47h5.04c2.85,0,4.28,.94,4.28,2.82,0,1.01-.21,3.22-.63,6.62-.42,3.4-.63,5.96-.63,7.7,0,11.28,1.51,24.01,4.54,38.18Zm-1.01-70.5c0,2.39-.84,4.25-2.52,5.58-1.68,1.34-3.61,2.01-5.79,2.01s-4.22-.67-5.86-2.01c-1.64-1.34-2.46-3.2-2.46-5.58,0-1.74,.84-3.15,2.52-4.23,1.68-1.08,3.61-1.63,5.8-1.63s4.22,.54,5.86,1.63c1.64,1.08,2.46,2.49,2.46,4.23Z"/><path class="h" d="M545.63,248.79c0,.58-1.26,.87-3.78,.87h-8.32c-1.85,0-3.11-.2-3.78-.6-.67-.4-1.01-1.43-1.01-3.09-1.34-5.78-2.02-15.91-2.02-30.37,0-17.79,.92-31.31,2.77-40.56,.33-1.74,.8-2.82,1.39-3.25,.33-.29,1.22-.43,2.65-.43h6.8c2.69,0,4.37,.51,5.04,1.52-.08,1.37-.67,7.23-1.76,17.57-1.01,9.62-1.51,17.28-1.51,22.99s.59,12.71,1.76,21.2c1.17,8.5,1.76,13.21,1.76,14.15Z"/><path class="h" d="M677.56,214.09c-.42,4.19-1.76,6.29-4.03,6.29-.84,0-2.6-.68-5.29-2.03-.92-.45-1.93-.68-3.02-.68-3.19,0-7.06,1.6-11.59,4.8-4.54,3.2-6.8,5.82-6.8,7.86,0,1.24,1.18,2.29,3.53,3.17,1.85,.66,3.61,.98,5.29,.98,3.36,0,6.47-1.01,9.32-3.04,1.01-.72,1.93-1.08,2.77-1.08,.33,0,.5,.8,.5,2.39,0,5.21-1.62,9.54-4.85,13.01-3.23,3.47-7.41,5.21-12.54,5.21-4.03,0-7.62-1.08-10.77-3.25-3.15-2.17-5.44-3.25-6.87-3.25-2.1,0-4.12,.72-6.05,2.17-5.8,2.89-11.93,4.34-18.4,4.34-15.62,0-23.43-6.22-23.43-18.66,0-8.24,5.8-16.2,17.39-23.86,.33-.29,.5-.79,.5-1.52,0-1.23-1.09-3.61-3.28-7.16-2.19-3.54-3.28-6.43-3.28-8.68,0-4.84,2.06-9.04,6.17-12.58,4.87-4.19,11.55-6.29,20.03-6.29,6.55,0,11.97,1.54,16.25,4.61,4.28,3.07,6.43,6.82,6.43,11.23,0,3.4-1.34,6.8-4.03,10.2-.59,.8-3.15,2.96-7.69,6.51-3.44,2.75-5.17,4.92-5.17,6.51,0,1.16,.48,2.28,1.45,3.36,.96,1.08,1.97,2.13,3.02,3.14,1.05,1.01,2.08,1.52,3.09,1.52,1.17,0,2.1-.5,2.77-1.52,3.11-3.11,7.1-5.86,11.97-8.24,5.21-2.6,9.87-3.9,13.99-3.9s7.1,.9,9.45,2.71c2.1,1.59,3.15,3.51,3.15,5.75Zm-54.68,18.22c0-1.23-.5-2.46-1.51-3.69-4.96-6.07-8.23-9.11-9.83-9.11-1.51,0-3.23,1.27-5.17,3.8-1.93,2.53-2.9,5.03-2.9,7.48,0,1.08,.76,2.28,2.27,3.58,1.85,1.66,4.28,2.64,7.31,2.93,1.85,0,3.82-.36,5.92-1.08,2.6-1.01,3.91-2.31,3.91-3.91Zm6.05-43.82c0-3.47-2.27-5.21-6.8-5.21-5.04,0-7.56,1.88-7.56,5.64,0,1.95,.54,3.87,1.64,5.75,1.18,2.1,2.56,3.14,4.16,3.14,2.35,0,4.41-1.12,6.17-3.36,1.59-2.02,2.39-4.01,2.39-5.97Z"/><path class="h" d="M779.51,219.08c.17,10.27-2.14,17.75-6.92,22.45-5.28,5.28-14.12,7.92-26.53,7.92h-23.39c-4.36,0-6.54-2.89-6.54-8.68,0-1.01-.19-4.7-.57-11.06-.38-6.36-.57-12-.57-16.92,0-5.42,.38-11.93,1.13-19.52,.76-8.03,1.55-13.09,2.39-15.18,.92-3.32,2.52-4.99,4.79-4.99h17.64c8.65,0,16.67,3.36,24.06,10.09,9.41,8.53,14.24,20.5,14.49,35.9Zm-17.64-2.88c0-6.64-1.93-13.2-5.77-19.7-4.18-7.22-9.03-10.82-14.55-10.82-6.36,0-9.54,10.46-9.54,31.39,0,6.28,1.17,11.24,3.51,14.88s5.6,5.46,9.79,5.46c5.52,0,9.83-2.52,12.92-7.58,2.43-3.97,3.64-8.51,3.64-13.64Z"/><path class="h" d="M841.99,233.39c0,4.77-2.05,8.82-6.14,12.15-4.35,3.62-10.07,5.42-17.18,5.42-8.69,0-15.55-3-20.56-9-4.51-5.28-6.77-11.82-6.77-19.63s2.56-15.11,7.69-21.69c5.8-7.38,13.14-11.06,22.05-11.06,5.38,0,10.08,1.45,14.11,4.34,4.54,3.33,6.8,7.67,6.8,13.01,0,8.17-8.9,14.17-26.71,18-2.1,.43-3.93,1.25-5.48,2.44-1.55,1.19-2.33,2.48-2.33,3.85,0,2.39,1.88,4.3,5.63,5.75,2.92,1.08,6.05,1.63,9.38,1.63,8.84,0,14.18-3.33,16.01-9.98,.33-1.16,.67-1.74,1-1.74,.42,0,.94,.69,1.56,2.06,.63,1.37,.94,2.86,.94,4.45Zm-13.36-26.46c0-1.59-.92-3.07-2.77-4.45-1.85-1.37-3.95-2.06-6.3-2.06-3.78,0-7.1,1.59-9.95,4.77-2.44,2.75-3.65,5.42-3.65,8.03,0,1.3,1.01,1.95,3.02,1.95,2.85,0,8.06-1.3,15.62-3.9,2.69-.94,4.03-2.39,4.03-4.34Z"/><path class="h" d="M871.48,248.79c0,.58-1.26,.87-3.78,.87h-8.32c-1.85,0-3.11-.2-3.78-.6-.67-.4-1.01-1.43-1.01-3.09-1.34-5.78-2.02-15.91-2.02-30.37,0-17.79,.92-31.31,2.77-40.56,.33-1.74,.8-2.82,1.39-3.25,.33-.29,1.22-.43,2.65-.43h6.8c2.69,0,4.37,.51,5.04,1.52-.08,1.37-.67,7.23-1.76,17.57-1.01,9.62-1.51,17.28-1.51,22.99s.59,12.71,1.76,21.2c1.17,8.5,1.76,13.21,1.76,14.15Z"/><path class="h" d="M928.67,233.39c0,4.77-2.05,8.82-6.14,12.15-4.35,3.62-10.07,5.42-17.18,5.42-8.69,0-15.55-3-20.56-9-4.51-5.28-6.77-11.82-6.77-19.63s2.56-15.11,7.69-21.69c5.8-7.38,13.14-11.06,22.05-11.06,5.38,0,10.08,1.45,14.11,4.34,4.54,3.33,6.8,7.67,6.8,13.01,0,8.17-8.9,14.17-26.71,18-2.1,.43-3.93,1.25-5.48,2.44-1.55,1.19-2.33,2.48-2.33,3.85,0,2.39,1.88,4.3,5.63,5.75,2.92,1.08,6.05,1.63,9.38,1.63,8.84,0,14.18-3.33,16.01-9.98,.33-1.16,.67-1.74,1-1.74,.42,0,.94,.69,1.56,2.06,.63,1.37,.94,2.86,.94,4.45Zm-13.36-26.46c0-1.59-.92-3.07-2.77-4.45-1.85-1.37-3.95-2.06-6.3-2.06-3.78,0-7.1,1.59-9.95,4.77-2.44,2.75-3.65,5.42-3.65,8.03,0,1.3,1.01,1.95,3.02,1.95,2.85,0,8.06-1.3,15.62-3.9,2.69-.94,4.03-2.39,4.03-4.34Z"/><path class="h" d="M981.45,198.25c0,2.46-1.01,4.84-3.02,7.16-2.02,2.31-3.78,3.47-5.29,3.47-1.01,0-1.51-.87-1.51-2.6,0-1.08-.8-2.12-2.39-3.09-1.6-.98-3.23-1.46-4.91-1.46-6.05,0-9.07,7.01-9.07,21.04,0,7.23,1.18,14.9,3.53,22.99,.33,1.16,.5,1.88,.5,2.17,0,1.01-1.26,1.52-3.78,1.52h-9.07c-1.6,0-2.58-.16-2.96-.49s-.82-1.39-1.32-3.2c-.67-4.63-1.01-12.8-1.01-24.51,0-3.4,.04-8.26,.13-14.59,.08-6.33,.13-10.58,.13-12.74,0-1.59,.42-2.6,1.26-3.04,.5-.29,1.51-.43,3.02-.43h7.31c1.93,0,2.98,.83,3.15,2.5,.17,1.66,.55,2.49,1.13,2.49,.67,0,2.88-1.08,6.61-3.25,3.74-2.17,6.74-3.25,9.01-3.25s4.37,1.07,6.05,3.2c1.68,2.13,2.52,4.18,2.52,6.13Z"/></g><path class="g" d="M41.23,247.52s28-96.03,103.14-113.1c105.71-24.03,149.77-5,225.61-42.56,52.14-25.82,85.85-55.75,177.14-55.16,82.69,.54,258.88,105.97,344.75,108.93,30.26,1.04,56.94,1.36,79.48-2.09l2.43,3.89c-25.04,2.47-66.75,4.33-81.69,4.21-85.83-3.78-262.79-103.74-345.47-104.28-91.29-.59-125,29.34-177.14,55.16-75.85,37.56-119.9,18.54-225.61,42.56-75.13,17.08-103.14,113.1-103.14,113.1l.5-10.66Z"/></g><g id="e"/><g id="f"/></svg>