<?xml version="1.0" encoding="utf-8"?>
<!-- Generator: Adobe Illustrator 26.1.0, SVG Export Plug-In . SVG Version: 6.00 Build 0)  -->
<svg version="1.1" id="Layer_1" xmlns="http://www.w3.org/2000/svg" xmlns:xlink="http://www.w3.org/1999/xlink" x="0px" y="0px"
	 viewBox="0 0 444 444" style="enable-background:new 0 0 444 444;" xml:space="preserve">
<style type="text/css">
	.st0{fill:#FFFFFF;}
</style>
<g>
	<path class="st0" d="M407,59.2h-7.4v-37c0-12.2-10-22.2-22.2-22.2h-14.8c-12.2,0-22.2,10-22.2,22.2v37l-236.8,0v-37
		C103.6,10,93.6,0,81.4,0H66.6C54.4,0,44.4,10,44.4,22.2v37l-7.4,0c-20.4,0-37,16.6-37,37V407c0,20.4,16.6,37,37,37h370
		c20.4,0,37-16.6,37-37V96.2C444,75.8,427.4,59.2,407,59.2L407,59.2z M355.2,22.2c0-4.1,3.3-7.4,7.4-7.4h14.8c4.1,0,7.4,3.3,7.4,7.4
		v74c0,4.1-3.3,7.4-7.4,7.4h-14.8c-4.1,0-7.4-3.3-7.4-7.4V22.2z M59.2,22.2c0-4.1,3.3-7.4,7.4-7.4h14.8c4.1,0,7.4,3.3,7.4,7.4v74
		c0,4.1-3.3,7.4-7.4,7.4H66.6c-4.1,0-7.4-3.3-7.4-7.4V22.2z M37,74h7.4v22.2c0,12.2,10,22.2,22.2,22.2h14.8
		c12.2,0,22.2-10,22.2-22.2V74h236.8v22.2c0,12.2,10,22.2,22.2,22.2h14.8c12.2,0,22.2-10,22.2-22.2V74h7.4c12.2,0,22.2,10,22.2,22.2
		v81.4l-414.4,0V96.2C14.8,84,24.8,74,37,74L37,74z M407,429.2H37c-12.2,0-22.2-10-22.2-22.2V192.4h414.4V407
		C429.2,419.2,419.2,429.2,407,429.2L407,429.2z"/>
	<path class="st0" d="M140.6,155.4h162.8c4.1,0,7.4-3.3,7.4-7.4v-44.4c0-4.1-3.3-7.4-7.4-7.4H140.6c-4.1,0-7.4,3.3-7.4,7.4V148
		C133.2,152.1,136.5,155.4,140.6,155.4z M148,111h148v29.6H148L148,111z"/>
	<path class="st0" d="M96.2,214.6H51.8c-4.1,0-7.4,3.3-7.4,7.4v37c0,4.1,3.3,7.4,7.4,7.4h44.4c4.1,0,7.4-3.3,7.4-7.4v-37
		C103.6,217.9,100.3,214.6,96.2,214.6L96.2,214.6z M88.8,251.6H59.2v-22.2h29.6L88.8,251.6z"/>
	<path class="st0" d="M192.4,214.6H148c-4.1,0-7.4,3.3-7.4,7.4v37c0,4.1,3.3,7.4,7.4,7.4h44.4c4.1,0,7.4-3.3,7.4-7.4v-37
		C199.8,217.9,196.5,214.6,192.4,214.6z M185,251.6h-29.6v-22.2H185V251.6z"/>
	<path class="st0" d="M251.6,266.4H296c4.1,0,7.4-3.3,7.4-7.4v-37c0-4.1-3.3-7.4-7.4-7.4h-44.4c-4.1,0-7.4,3.3-7.4,7.4v37
		C244.2,263.1,247.5,266.4,251.6,266.4z M259,229.4h29.6v22.2H259V229.4z"/>
	<path class="st0" d="M392.2,214.6h-44.4c-4.1,0-7.4,3.3-7.4,7.4v37c0,4.1,3.3,7.4,7.4,7.4h44.4c4.1,0,7.4-3.3,7.4-7.4v-37
		C399.6,217.9,396.3,214.6,392.2,214.6z M384.8,251.6h-29.6v-22.2h29.6V251.6z"/>
	<path class="st0" d="M96.2,288.6H51.8c-4.1,0-7.4,3.3-7.4,7.4v37c0,4.1,3.3,7.4,7.4,7.4h44.4c4.1,0,7.4-3.3,7.4-7.4v-37
		C103.6,291.9,100.3,288.6,96.2,288.6L96.2,288.6z M88.8,325.6H59.2v-22.2h29.6L88.8,325.6z"/>
	<path class="st0" d="M192.4,288.6H148c-4.1,0-7.4,3.3-7.4,7.4v37c0,4.1,3.3,7.4,7.4,7.4h44.4c4.1,0,7.4-3.3,7.4-7.4v-37
		C199.8,291.9,196.5,288.6,192.4,288.6z M185,325.6h-29.6v-22.2H185V325.6z"/>
	<path class="st0" d="M251.6,340.4H296c4.1,0,7.4-3.3,7.4-7.4v-37c0-4.1-3.3-7.4-7.4-7.4h-44.4c-4.1,0-7.4,3.3-7.4,7.4v37
		C244.2,337.1,247.5,340.4,251.6,340.4z M259,303.4h29.6v22.2H259V303.4z"/>
	<path class="st0" d="M392.2,288.6h-44.4c-4.1,0-7.4,3.3-7.4,7.4v37c0,4.1,3.3,7.4,7.4,7.4h44.4c4.1,0,7.4-3.3,7.4-7.4v-37
		C399.6,291.9,396.3,288.6,392.2,288.6z M384.8,325.6h-29.6v-22.2h29.6V325.6z"/>
	<path class="st0" d="M96.2,362.6H51.8c-4.1,0-7.4,3.3-7.4,7.4v37c0,4.1,3.3,7.4,7.4,7.4h44.4c4.1,0,7.4-3.3,7.4-7.4v-37
		C103.6,365.9,100.3,362.6,96.2,362.6L96.2,362.6z M88.8,399.6H59.2v-22.2h29.6L88.8,399.6z"/>
	<path class="st0" d="M192.4,362.6H148c-4.1,0-7.4,3.3-7.4,7.4v37c0,4.1,3.3,7.4,7.4,7.4h44.4c4.1,0,7.4-3.3,7.4-7.4v-37
		C199.8,365.9,196.5,362.6,192.4,362.6z M185,399.6h-29.6v-22.2H185V399.6z"/>
	<path class="st0" d="M265.9,396l-16.5-16.5L239,390l22.2,22.2c1.4,1.4,3.3,2.2,5.2,2.2c0.1,0,0.2,0,0.3,0c2.1-0.1,4-1.1,5.4-2.6
		l37-44.4l-11.4-9.5L265.9,396z"/>
	<path class="st0" d="M354.7,396l-16.5-16.5L327.8,390l22.2,22.2c1.4,1.4,3.3,2.2,5.2,2.2c0.1,0,0.2,0,0.3,0c2.1-0.1,4-1.1,5.4-2.6
		l37-44.4l-11.4-9.5L354.7,396z"/>
</g>
</svg>
