<?xml version="1.0" encoding="UTF-8" standalone="no"?>
<!-- Created with Inkscape (http://www.inkscape.org/) -->

<svg
   width="160"
   height="160"
   id="svg2"
   sodipodi:version="0.32"
   inkscape:version="1.1 (c4e8f9e, 2021-05-24)"
   version="1.0"
   sodipodi:docname="phone.svg"
   inkscape:output_extension="org.inkscape.output.svg.inkscape"
   xmlns:inkscape="http://www.inkscape.org/namespaces/inkscape"
   xmlns:sodipodi="http://sodipodi.sourceforge.net/DTD/sodipodi-0.dtd"
   xmlns="http://www.w3.org/2000/svg"
   xmlns:svg="http://www.w3.org/2000/svg"
   xmlns:rdf="http://www.w3.org/1999/02/22-rdf-syntax-ns#"
   xmlns:cc="http://creativecommons.org/ns#"
   xmlns:dc="http://purl.org/dc/elements/1.1/">
  <defs
     id="defs4" />
  <sodipodi:namedview
     id="base"
     pagecolor="#ffffff"
     bordercolor="#666666"
     borderopacity="1.0"
     gridtolerance="10000"
     guidetolerance="10"
     objecttolerance="10"
     inkscape:pageopacity="0.0"
     inkscape:pageshadow="2"
     inkscape:zoom="2.4401716"
     inkscape:cx="80.527124"
     inkscape:cy="57.577918"
     inkscape:document-units="px"
     inkscape:current-layer="layer1"
     inkscape:window-width="1490"
     inkscape:window-height="933"
     inkscape:window-x="1593"
     inkscape:window-y="31"
     inkscape:pagecheckerboard="0"
     showgrid="false"
     inkscape:window-maximized="0"
     height="104.97656px" />
  <metadata
     id="metadata7">
    <rdf:RDF>
      <cc:Work
         rdf:about="">
        <dc:format>image/svg+xml</dc:format>
        <dc:type
           rdf:resource="http://purl.org/dc/dcmitype/StillImage" />
      </cc:Work>
    </rdf:RDF>
  </metadata>
  <g
     inkscape:label="Layer 1"
     inkscape:groupmode="layer"
     id="layer1"
     transform="translate(-32.6875,-66.939596)">
    <path
       style="font-size:144px;font-family:'DejaVu Sans';fill:#ffffff"
       d="m 113.03055,111.19878 h 0.63281 c 28.26551,0.79698 48.42174,4.82822 60.46875,12.09375 12.70296,7.68758 19.05452,15.5157 19.05469,23.48437 -1.68767,7.17194 -4.94548,10.75787 -9.77344,10.75781 -0.28141,6e-5 -0.5861,-0.0234 -0.91406,-0.0703 l -28.61719,-9.84375 c -2.81263,-0.84368 -4.21888,-2.27337 -4.21875,-4.28906 -1.3e-4,-0.89055 0.28112,-1.9218 0.84375,-3.09375 3.18737,-3.32804 4.78112,-5.7421 4.78125,-7.24219 -1.3e-4,-1.07804 -0.79701,-1.68741 -2.39062,-1.82812 H 73.866489 c -1.593799,0.14071 -2.390673,0.75008 -2.390625,1.82812 -4.8e-5,1.50009 1.593701,3.91415 4.78125,7.24219 0.562447,1.12508 0.843697,2.15632 0.84375,3.09375 -5.3e-5,2.01569 -1.42974,3.44538 -4.289062,4.28906 l -28.617188,9.84374 c -0.328145,0.0469 -0.632832,0.0704 -0.914062,0.0703 -4.781265,6e-5 -8.039075,-3.58587 -9.773438,-10.75781 -1e-5,-7.96867 6.374984,-15.79679 19.125,-23.48437 11.999959,-7.17178 32.132751,-11.20302 60.398436,-12.09375 z m 16.94531,29.03906 v -5.27344 h 10.125 v 10.6875 c -1.2e-4,3.51569 5.64832,6.60944 16.94531,9.28125 10.82798,4.45318 16.24204,13.38286 16.24219,26.78906 v 34.45313 H 53.405552 v -34.45313 c -3e-5,-13.4062 5.437464,-22.33588 16.3125,-26.78906 11.249942,-2.67181 16.874937,-5.76556 16.875,-9.28125 v -10.6875 h 10.195312 v 5.27344 z m -45.210933,38.46094 c -6.2e-5,7.82815 2.765561,14.48439 8.296875,19.96875 5.531175,5.48438 12.163978,8.22657 19.898438,8.22656 7.8749,1e-5 14.55458,-2.74218 20.03906,-8.22656 5.48426,-5.48436 8.22644,-12.1406 8.22656,-19.96875 -1.2e-4,-7.78121 -2.73058,-14.43745 -8.19141,-19.96875 -5.46104,-5.53119 -12.15244,-8.29681 -20.07421,-8.29688 -7.82821,7e-5 -14.484451,2.76569 -19.968751,8.29688 -5.484439,5.5313 -8.226624,12.18754 -8.226562,19.96875 z m 44.015623,-0.0703 c -1.1e-4,4.35941 -1.53526,8.08597 -4.60547,11.17969 -3.07041,3.09377 -6.80869,4.64065 -11.21484,4.64063 -4.35946,2e-5 -8.0743,-1.54686 -11.14454,-4.64063 -3.07038,-3.09372 -4.605535,-6.82028 -4.605461,-11.17969 -7.4e-5,-4.45308 1.535081,-8.21479 4.605461,-11.28515 3.07024,-3.07026 6.78508,-4.60542 11.14454,-4.60547 4.40615,5e-5 8.14443,1.53521 11.21484,4.60547 3.07021,3.07036 4.60536,6.83207 4.60547,11.28515 z m -11.17969,-22.28906 c -9e-5,1.03131 -0.37509,1.94537 -1.125,2.74219 -0.75009,0.79693 -1.68759,1.19537 -2.8125,1.19531 -1.07821,6e-5 -2.00399,-0.39838 -2.77734,-1.19531 -0.77353,-0.79682 -1.16025,-1.71088 -1.16016,-2.74219 -9e-5,-1.12494 0.38663,-2.08587 1.16016,-2.88281 0.77335,-0.79681 1.69913,-1.19525 2.77734,-1.19531 1.12491,6e-5 2.06241,0.3985 2.8125,1.19531 0.74991,0.79694 1.12491,1.75787 1.125,2.88281 z m 0,44.22656 c -9e-5,1.12502 -0.37509,2.07424 -1.125,2.84766 -0.75009,0.77345 -1.68759,1.16017 -2.8125,1.16016 -1.07821,1e-5 -2.00399,-0.38671 -2.77734,-1.16016 -0.77353,-0.77342 -1.16025,-1.72264 -1.16016,-2.84766 -9e-5,-1.0781 0.38663,-2.0156 1.16016,-2.8125 0.77335,-0.79685 1.69913,-1.19529 2.77734,-1.19531 1.12491,2e-5 2.06241,0.39846 2.8125,1.19531 0.74991,0.7969 1.12491,1.7344 1.125,2.8125 z m -15.67969,-43.875 c 0.65617,0.0938 1.28899,0.586 1.89844,1.47657 0.60929,0.89068 0.84367,1.87505 0.70313,2.95312 -0.14071,1.07818 -0.65634,1.92193 -1.54688,2.53125 -0.8907,0.70318 -1.87508,0.97271 -2.95312,0.80859 -1.078201,-0.16401 -1.945388,-0.69135 -2.601563,-1.58203 -0.656324,-0.93744 -0.890698,-1.93353 -0.703125,-2.98828 0.187426,-1.05463 0.726488,-1.93353 1.617187,-2.63672 0.70305,-0.46869 1.453049,-0.70306 2.250001,-0.70312 0.2343,6e-5 0.6796,0.0469 1.33593,0.14062 z m 27.91407,37.26563 c 0.70301,0.89064 0.97254,1.87502 0.80859,2.95312 -0.16417,1.07815 -0.71495,1.96877 -1.65234,2.67188 -0.70323,0.46876 -1.45323,0.70314 -2.25,0.70312 -0.23448,2e-5 -0.66808,-0.0469 -1.30079,-0.14062 -0.63291,-0.0937 -1.30088,-0.60936 -2.0039,-1.54688 -0.60948,-0.8906 -0.83213,-1.86326 -0.66797,-2.91797 0.16396,-1.05466 0.69131,-1.91013 1.58203,-2.5664 0.89052,-0.60935 1.8749,-0.84373 2.95313,-0.70313 1.07802,0.14065 1.92176,0.65628 2.53125,1.54688 z M 93.764927,167.80034 c 1.124928,0.37505 1.921802,1.04301 2.390625,2.0039 0.468677,0.96099 0.538989,1.95708 0.210937,2.98829 -0.328197,1.03129 -0.984447,1.79301 -1.96875,2.28515 -0.984445,0.49223 -1.992256,0.5977 -3.023437,0.31641 -1.031317,-0.32809 -1.757879,-0.89058 -2.179688,-1.6875 -0.42194,-0.79683 -0.632877,-1.49996 -0.632812,-2.10938 -6.5e-5,-0.42183 0.07025,-0.8437 0.210937,-1.26562 0.374935,-1.0312 1.042903,-1.79292 2.003906,-2.28516 0.96087,-0.49214 1.956962,-0.57417 2.988282,-0.24609 z m 39.199213,13.92187 c 0.96083,-0.46871 1.95692,-0.53902 2.98828,-0.21093 1.03114,0.32816 1.74598,0.89065 2.14453,1.6875 0.39833,0.7969 0.59754,1.50003 0.59766,2.10937 -1.2e-4,0.37503 -0.0704,0.77347 -0.21094,1.19531 -0.37511,1.03128 -1.04308,1.793 -2.0039,2.28516 -0.96105,0.49221 -1.95715,0.55081 -2.98828,0.17578 -1.03136,-0.3281 -1.79308,-0.97263 -2.28516,-1.93359 -0.4923,-0.96091 -0.57433,-1.98044 -0.24609,-3.0586 0.37489,-1.03121 1.04286,-1.78121 2.0039,-2.25 z m -43.769526,1.47657 c 0.421809,-0.79685 1.148371,-1.35934 2.179688,-1.6875 1.031181,-0.32809 2.038992,-0.25778 3.023437,0.21093 0.984303,0.46879 1.640553,1.21879 1.96875,2.25 0.328052,1.12503 0.25774,2.168 -0.210937,3.12891 -0.468823,0.96097 -1.218822,1.62893 -2.25,2.00391 -1.12507,0.28127 -2.168037,0.1758 -3.128907,-0.31641 -0.961003,-0.49216 -1.628971,-1.25388 -2.003906,-2.28516 -0.14069,-0.42184 -0.211002,-0.82028 -0.210937,-1.19531 -6.5e-5,-0.60934 0.210872,-1.31247 0.632812,-2.10937 z m 44.296876,-15.39844 c 1.03113,-0.32808 2.02723,-0.24605 2.98828,0.24609 0.96082,0.49224 1.62879,1.25396 2.0039,2.28516 0.14051,0.42192 0.21082,0.82036 0.21094,1.19531 -1.2e-4,0.60942 -0.19933,1.30083 -0.59766,2.07422 -0.39855,0.77348 -1.11339,1.3477 -2.14453,1.72266 -1.03136,0.32816 -2.05089,0.24613 -3.05859,-0.2461 -1.00792,-0.49214 -1.65245,-1.25386 -1.93359,-2.28515 -0.32824,-1.03121 -0.24621,-2.0273 0.24609,-2.98829 0.49208,-0.96089 1.2538,-1.62885 2.28516,-2.0039 z m -36.070313,26.15625 c 0.656175,-0.84373 1.523362,-1.34763 2.601563,-1.51172 1.07804,-0.16404 2.06242,0.0586 2.95312,0.66797 0.89054,0.65627 1.42961,1.53518 1.61719,2.63672 0.18742,1.10158 -0.0704,2.0508 -0.77344,2.84765 -0.60945,0.93752 -1.24227,1.45314 -1.89844,1.54688 -0.65633,0.0938 -1.10163,0.14064 -1.33593,0.14062 -0.796952,2e-5 -1.546951,-0.23436 -2.250001,-0.70312 -0.890699,-0.70311 -1.394605,-1.3828 -1.511719,-2.03906 -0.11726,-0.65623 -0.175854,-1.10155 -0.175781,-1.33594 -7.3e-5,-0.79686 0.257739,-1.54685 0.773438,-2.25 z M 123.4368,158.16753 c 0.70302,-0.89057 1.37099,-1.38276 2.0039,-1.47657 0.63271,-0.0937 1.06631,-0.14056 1.30079,-0.14062 0.79677,6e-5 1.54677,0.23443 2.25,0.70312 0.93739,0.70319 1.45301,1.37115 1.54687,2.00391 0.0936,0.63287 0.14052,1.04302 0.14063,1.23047 -1.1e-4,0.8438 -0.28136,1.64068 -0.84375,2.39062 -0.60949,0.89068 -1.23058,1.38287 -1.86329,1.47657 -0.63291,0.0938 -1.06651,0.14067 -1.30078,0.14062 -0.84385,5e-5 -1.61729,-0.2812 -2.32031,-0.84375 -0.89072,-0.60932 -1.38291,-1.24213 -1.47656,-1.89844 -0.0938,-0.65619 -0.14073,-1.1015 -0.14063,-1.33593 -1e-4,-0.79682 0.23428,-1.54682 0.70313,-2.25 z"
       id="flowRoot2168" />
  </g>
</svg>
